<?xml version="1.0" standalone="no"?>
<!DOCTYPE svg PUBLIC "-//W3C//DTD SVG 20010904//EN"
 "http://www.w3.org/TR/2001/REC-SVG-20010904/DTD/svg10.dtd">
<svg version="1.0" xmlns="http://www.w3.org/2000/svg"
 width="1046.000000pt" height="1280.000000pt" viewBox="0 0 1046.000000 1280.000000"
 preserveAspectRatio="xMidYMid meet">
<metadata>
Created by potrace 1.15, written by Peter Selinger 2001-2017
</metadata>
<g transform="translate(0.000000,1280.000000) scale(0.100000,-0.100000)"
fill="#ffffff" stroke="none">
<path d="M6180 12793 c-539 -87 -873 -181 -1337 -379 -1685 -718 -3085 -2188
-3789 -3980 -159 -405 -294 -830 -404 -1274 -33 -135 -68 -267 -76 -294 -28
-84 -38 -35 -31 153 23 620 230 1395 560 2096 314 670 715 1254 1336 1945 160
178 153 169 82 114 -120 -93 -296 -249 -432 -384 -909 -904 -1467 -2128 -1623
-3555 -35 -320 -41 -439 -41 -855 0 -506 15 -707 91 -1220 54 -366 98 -573
227 -1065 68 -259 73 -285 53 -285 -18 0 -78 95 -146 230 -250 499 -434 1147
-510 1795 -26 226 -38 395 -50 724 -6 151 -12 276 -14 278 -5 5 -34 -216 -53
-397 -23 -232 -23 -765 0 -980 60 -538 171 -950 363 -1345 118 -244 233 -425
577 -915 545 -775 765 -1050 1126 -1410 287 -286 487 -454 908 -761 251 -183
337 -254 326 -272 -10 -17 -105 0 -235 43 -152 49 -296 108 -550 223 -209 95
-252 111 -274 103 -67 -26 411 -397 806 -626 482 -280 1019 -476 1360 -497
164 -10 201 23 145 129 -30 57 -32 94 -6 108 25 13 103 13 172 0 398 -76 924
-107 1329 -80 535 36 888 106 1726 339 267 74 364 92 559 101 289 14 380 44
580 192 562 416 1044 977 1310 1525 57 117 102 239 92 249 -11 11 -26 -6 -175
-204 -207 -272 -292 -372 -467 -551 -225 -229 -410 -386 -630 -531 -131 -86
-255 -150 -290 -150 l-26 0 18 30 c10 17 115 128 233 248 119 119 251 258 295
307 527 593 873 1271 1040 2035 77 354 111 628 122 990 25 858 -197 1555 -703
2210 -98 127 -376 412 -495 507 -121 98 -308 215 -487 306 -517 262 -923 363
-1602 397 -278 14 -294 18 -225 56 42 22 45 35 8 29 -16 -2 -62 -9 -103 -16
-160 -24 -298 -62 -545 -151 -510 -184 -846 -396 -1191 -749 -179 -184 -311
-364 -407 -555 -67 -134 -117 -274 -96 -274 9 0 22 16 138 181 68 96 234 290
218 254 -3 -5 -37 -64 -77 -130 -223 -370 -341 -708 -381 -1093 -15 -149 -6
-492 16 -587 38 -165 157 -459 200 -495 22 -18 20 -5 -29 192 -63 249 -80 397
-73 628 12 374 90 679 259 1000 323 618 955 1088 1680 1250 315 71 696 78
1028 21 441 -77 866 -266 1190 -528 164 -133 154 -135 -87 -15 -256 128 -417
198 -581 252 -718 234 -1429 193 -2047 -119 -697 -353 -1137 -961 -1216 -1682
-16 -148 -6 -418 21 -542 64 -300 195 -567 394 -805 211 -251 489 -421 816
-499 158 -37 414 -44 562 -14 420 84 772 364 912 727 96 249 98 513 6 744 -31
79 -132 198 -160 188 -5 -2 7 -39 26 -83 71 -164 86 -227 91 -385 6 -167 -12
-276 -66 -416 -93 -240 -341 -482 -604 -590 -250 -101 -520 -118 -792 -49
-352 89 -655 314 -874 650 -199 304 -292 676 -262 1044 50 623 375 1160 923
1524 268 178 553 292 875 348 102 18 168 23 323 23 188 1 376 -17 365 -34 -6
-10 -92 -26 -280 -50 -470 -61 -805 -179 -1139 -401 -413 -273 -690 -640 -817
-1082 -121 -418 -76 -840 127 -1200 200 -353 503 -583 864 -657 137 -28 352
-24 473 8 263 72 489 248 596 466 51 104 70 178 77 296 11 180 -44 334 -163
461 -176 186 -443 209 -601 52 -57 -58 -82 -113 -82 -187 0 -147 110 -233 233
-181 41 17 51 45 32 90 -19 46 -35 53 -29 13 6 -43 -5 -57 -47 -64 -96 -16
-150 133 -81 225 107 146 328 143 478 -5 100 -98 147 -212 148 -359 1 -114
-15 -177 -70 -290 -139 -285 -468 -462 -818 -442 -432 25 -820 318 -1017 766
-90 204 -123 385 -116 621 10 286 75 516 219 773 246 437 716 783 1237 912
200 49 405 65 436 34 25 -25 5 -34 -201 -94 -234 -67 -344 -108 -498 -186
-464 -233 -796 -597 -940 -1029 -51 -156 -66 -239 -72 -405 -9 -225 26 -400
116 -590 231 -484 732 -737 1144 -577 239 93 409 324 379 516 -14 97 -87 197
-152 209 -43 8 -45 -3 -8 -42 43 -45 55 -68 67 -128 35 -189 -166 -416 -415
-468 -177 -37 -375 4 -561 117 -133 80 -279 245 -367 414 -98 190 -132 355
-124 593 7 225 53 392 166 607 126 239 325 453 568 610 468 303 1042 380 1588
213 109 -34 224 -88 325 -154 69 -45 118 -91 107 -101 -3 -4 -66 12 -139 34
-345 105 -504 132 -772 132 -317 -1 -548 -54 -821 -190 -176 -88 -301 -176
-435 -310 -408 -405 -516 -968 -266 -1395 60 -102 194 -234 279 -274 102 -49
120 -38 43 25 -82 67 -155 165 -216 289 -70 142 -90 224 -97 382 -9 200 23
350 116 548 109 234 317 460 561 612 503 312 1150 333 1711 54 582 -290 1023
-883 1158 -1558 37 -185 2 -157 -119 94 -185 383 -365 642 -606 873 -281 267
-591 437 -932 511 -142 30 -415 37 -553 14 -164 -27 -339 -97 -403 -162 -26
-26 -27 -28 -9 -41 21 -16 107 -10 213 14 97 23 280 32 415 22 308 -22 594
-128 900 -333 320 -213 679 -536 799 -719 198 -301 296 -653 296 -1063 0 -620
-227 -1215 -613 -1612 -74 -76 -129 -121 -149 -121 -18 0 -5 52 38 145 158
344 202 457 253 635 60 211 75 317 76 527 0 169 -2 194 -17 209 -17 17 -19 15
-38 -29 -12 -26 -41 -126 -66 -223 -93 -367 -196 -588 -474 -1014 -70 -108
-138 -216 -149 -238 -29 -57 -27 -99 9 -146 17 -22 30 -47 30 -56 0 -42 -66
-144 -152 -235 -256 -270 -674 -520 -1120 -669 -315 -105 -634 -152 -968 -143
-248 8 -394 29 -486 73 -72 34 -40 62 149 129 86 30 142 64 142 85 0 26 -60
49 -230 85 -213 46 -676 158 -815 197 -58 16 -200 60 -315 98 -229 75 -277 85
-283 58 -8 -39 130 -158 399 -344 186 -128 222 -160 199 -174 -23 -14 -62 -12
-172 10 -295 60 -718 253 -1008 460 -396 282 -739 646 -961 1021 -126 212
-184 361 -268 686 -33 125 -89 323 -125 438 -130 414 -198 642 -241 815 -68
270 -125 590 -141 787 -11 136 -34 138 -53 4 -18 -132 -22 -280 -12 -450 29
-458 115 -869 287 -1359 149 -424 166 -474 160 -479 -18 -18 -113 104 -215
276 -278 465 -447 968 -528 1571 -26 193 -26 715 0 915 45 346 119 639 262
1035 276 765 657 1481 1094 2058 150 199 140 185 151 221 7 25 6 31 -7 31 -55
0 -303 -255 -505 -520 -403 -528 -700 -1142 -887 -1835 -70 -258 -118 -509
-181 -945 -17 -118 -35 -219 -41 -225 -17 -17 -27 13 -38 114 -19 172 -22 322
-11 520 13 229 42 413 110 686 229 927 716 1763 1454 2500 423 422 886 775
1440 1099 237 139 397 223 933 488 278 137 503 251 500 254 -8 8 -244 -54
-387 -103 -1092 -367 -2121 -1098 -2882 -2049 -265 -331 -490 -680 -714 -1105
-63 -119 -114 -219 -114 -223 0 -15 -194 -393 -211 -411 -14 -15 -22 -16 -31
-7 -32 32 145 549 303 880 604 1267 1758 2325 3228 2962 728 315 1460 507
2534 662 86 12 157 26 157 30 0 11 -298 10 -470 -2 -1617 -111 -3272 -911
-4438 -2147 -353 -375 -587 -677 -939 -1213 -155 -236 -205 -300 -231 -300
-23 0 -10 51 47 185 230 535 639 1114 1146 1620 1048 1048 2474 1758 4073
2025 240 40 349 55 607 85 121 14 256 30 299 35 44 6 96 10 118 10 21 0 38 4
38 9 0 4 -91 11 -202 15 -1247 42 -2583 -368 -3768 -1157 -1084 -722 -1969
-1730 -2612 -2975 -44 -86 -85 -159 -91 -161 -20 -7 2 125 39 240 100 311 305
715 549 1084 849 1283 2183 2286 3805 2858 179 63 536 179 593 193 15 3 30 10
33 15 3 5 4 8 2 8 -2 -1 -14 -4 -28 -6z"/>
</g>
</svg>
