<!DOCTYPE svg PUBLIC "-//W3C//DTD SVG 1.1//EN" "http://www.w3.org/Graphics/SVG/1.1/DTD/svg11.dtd">
<!-- Uploaded to: SVG Repo, www.svgrepo.com, Transformed by: SVG Repo Mixer Tools -->
<svg fill="#ffffff" width="800px" height="800px" viewBox="0 0 1069 1069" style="fill-rule:evenodd;clip-rule:evenodd;stroke-linejoin:round;stroke-miterlimit:2;" version="1.1" xml:space="preserve" xmlns="http://www.w3.org/2000/svg" xmlns:serif="http://www.serif.com/" xmlns:xlink="http://www.w3.org/1999/xlink" stroke="#ffffff">
<g id="SVGRepo_bgCarrier" stroke-width="0"/>
<g id="SVGRepo_tracerCarrier" stroke-linecap="round" stroke-linejoin="round"/>
<g id="SVGRepo_iconCarrier"> <rect height="1066.67" id="Ram" style="fill:none;" width="1066.67" x="0.031" y="0.592"/> <g> <path d="M252.329,815.175c0,-0 104.167,-0 104.167,-0l1.343,-0.162c5.981,-0.865 29.907,-5.925 29.907,-31.508l-0,-30.831c-0,-46.023 -37.31,-83.332 -83.333,-83.332l-0.084,-0c-45.977,-0 -83.25,37.272 -83.25,83.249l0,30.912l31.25,31.672Zm218.535,-0c0,-0 104.167,-0 104.167,-0l1.342,-0.162c5.982,-0.865 29.908,-5.925 29.908,-31.508l-0,-30.831c-0.001,-46.023 -37.31,-83.332 -83.334,-83.332c17.259,-0 31.25,13.991 31.25,31.25c0,17.259 -13.991,31.25 -31.25,31.25c17.259,-0 31.25,-13.991 31.25,-31.25c0,-17.259 -13.991,-31.25 -31.25,-31.25c-46.023,-0 -83.333,37.309 -83.333,83.332l0,30.831l31.25,31.67Zm-145.618,-62.5l-0,-0.002c-0.001,-11.505 -9.328,-20.831 -20.833,-20.831c-0,-0 -0.082,-0 -0.086,-0c-11.458,0.001 -20.747,9.289 -20.748,20.751l0,0.082l41.667,-0Zm218.535,-0l-0,-0.002c-0.001,-11.505 -9.328,-20.831 -20.834,-20.831c-11.505,-0 -20.832,9.326 -20.833,20.833l41.667,-0Zm364.583,-208.333l62.5,-0c17.247,-0 31.25,-14.003 31.25,-31.25c0,-17.248 -14.003,-31.25 -31.25,-31.25l-62.5,-0c-17.247,-0 -31.25,14.002 -31.25,31.25c0,17.247 14.003,31.25 31.25,31.25Zm-812.5,-0l62.5,-0c17.247,-0 31.25,-14.003 31.25,-31.25c0,-17.248 -14.003,-31.25 -31.25,-31.25l-62.5,-0c-17.247,-0 -31.25,14.002 -31.25,31.25c0,17.247 14.003,31.25 31.25,31.25Zm812.5,-104.167l62.5,-0c17.247,-0 31.25,-14.003 31.25,-31.25c0,-17.247 -14.003,-31.25 -31.25,-31.25l-62.5,-0c-17.247,-0 -31.25,14.003 -31.25,31.25c0,17.247 14.003,31.25 31.25,31.25Zm-812.5,-0l62.5,-0c17.247,-0 31.25,-14.003 31.25,-31.25c0,-17.247 -14.003,-31.25 -31.25,-31.25l-62.5,-0c-17.247,-0 -31.25,14.003 -31.25,31.25c0,17.247 14.003,31.25 31.25,31.25Z" style="fill-opacity:0.5;"/> <path d="M887.532,252.675l-708.335,-0c-63.283,0 -114.583,51.301 -114.583,114.583l0,333.334c0,63.282 51.3,114.582 114.583,114.583l708.334,-0c63.283,-0.001 114.583,-51.301 114.583,-114.583l0,-333.334c-0,-63.282 -51.3,-114.583 -114.582,-114.583Zm-175.947,62.5c-0.6,28.918 -11.172,56.436 -29.187,76.943c-19.911,22.664 -47.086,35.033 -75.243,35.033l-146.417,0c-28.157,0 -55.332,-12.369 -75.243,-35.033c-18.014,-20.507 -28.587,-48.025 -29.187,-76.943l-177.113,-0c-28.763,0.001 -52.08,23.318 -52.081,52.083l0,218.75l739.583,0c17.248,0 31.25,14.003 31.25,31.25c0,17.248 -14.002,31.25 -31.25,31.25l-739.583,0l0,52.086c0.001,28.763 23.318,52.08 52.083,52.081c0,-0 708.333,-0 708.336,-0c28.763,-0.001 52.08,-23.318 52.081,-52.083l0,-333.336c-0.001,-28.763 -23.318,-52.08 -52.083,-52.081l-175.946,-0Zm-62.527,-0c-0.54,13.395 -5.252,26.174 -13.615,35.694c-7.548,8.592 -17.612,13.782 -28.287,13.782c-0.002,0 -146.417,0 -146.417,0c-10.677,-0 -20.741,-5.19 -28.289,-13.782c-8.363,-9.52 -13.075,-22.299 -13.615,-35.694l230.223,-0Z"/> </g> </g>
</svg>